
<svg width="20" height="11" viewBox="0 0 20 11" fill="none" xmlns="http://www.w3.org/2000/svg">
<path d="M10 10.9091C9.88065 10.9093 9.7624 10.8858 9.6521 10.8401C9.5418 10.7944 9.44162 10.7273 9.35732 10.6428L0.26642 1.55187C-0.0888067 1.19665 -0.0888067 0.62142 0.26642 0.26642C0.621647 -0.0885794 1.19687 -0.0888067 1.55187 0.26642L10 8.71459L18.4482 0.26642C18.8034 -0.0888067 19.3787 -0.0888067 19.7337 0.26642C20.0887 0.621647 20.0889 1.19687 19.7337 1.55187L10.6428 10.6428C10.5585 10.7273 10.4583 10.7944 10.348 10.8401C10.2377 10.8858 10.1194 10.9093 10 10.9091Z" fill="#fff"/>
</svg>