<svg width="138" height="24" viewBox="0 0 138 24" fill="none" xmlns="http://www.w3.org/2000/svg">
<path d="M6.24715 18.9886C4.91193 18.9886 3.7642 18.75 2.80397 18.2727C1.84374 17.7955 1.13636 17.1392 0.681813 16.304C0.227267 15.4687 0.0823809 14.5114 0.247154 13.4318H4.84943C4.76988 14.0284 4.92329 14.5085 5.30965 14.8722C5.69602 15.2301 6.2017 15.4091 6.8267 15.4091C7.32102 15.4091 7.76988 15.3068 8.17329 15.1023C8.5767 14.892 8.91477 14.5994 9.18749 14.2244C9.46022 13.8437 9.6392 13.3977 9.72443 12.8864C9.80965 12.375 9.7784 11.9318 9.63068 11.5568C9.48295 11.1761 9.24147 10.8835 8.90624 10.679C8.57102 10.4687 8.16193 10.3636 7.67897 10.3636C7.17329 10.3636 6.69034 10.4858 6.23011 10.7301C5.76988 10.9688 5.40056 11.3011 5.12215 11.7273L1.09943 10.9091L3.38352 1.29545H15.1108L14.4972 5.07954H6.65624L5.66761 8.93182H5.76988C6.13352 8.40341 6.67897 7.96591 7.40624 7.61932C8.1392 7.26705 8.94602 7.09091 9.8267 7.09091C10.8665 7.09091 11.7528 7.33239 12.4858 7.81534C13.2187 8.2983 13.75 8.96591 14.0795 9.81818C14.4091 10.6705 14.4801 11.6477 14.2926 12.75C14.1051 13.9659 13.6449 15.0426 12.9119 15.9801C12.179 16.9176 11.2415 17.6534 10.0994 18.1875C8.95738 18.7216 7.67329 18.9886 6.24715 18.9886ZM22.8814 19.2273C21.2905 19.2273 19.9751 18.8636 18.9354 18.1364C17.8956 17.4034 17.1768 16.3523 16.7791 14.983C16.3814 13.6136 16.3473 11.9716 16.6768 10.0568C17.0064 8.13636 17.5945 6.50568 18.441 5.16477C19.2933 3.82386 20.3501 2.80398 21.6115 2.10511C22.8785 1.40625 24.3018 1.05682 25.8814 1.05682C27.4609 1.05682 28.7678 1.40625 29.8018 2.10511C30.8359 2.80398 31.5547 3.82386 31.9581 5.16477C32.3615 6.5 32.4041 8.13068 32.0859 10.0568C31.7678 11.9773 31.1825 13.6222 30.3303 14.9915C29.4837 16.3608 28.424 17.4091 27.1513 18.1364C25.8842 18.8636 24.4609 19.2273 22.8814 19.2273ZM23.5291 15.375C24.3473 15.375 25.0803 14.9489 25.728 14.0966C26.3814 13.2386 26.8643 11.892 27.1768 10.0568C27.3814 8.86364 27.4297 7.88636 27.3217 7.125C27.2138 6.35795 26.9808 5.79261 26.6229 5.42898C26.2649 5.05966 25.8132 4.875 25.2678 4.875C24.4496 4.875 23.7053 5.29261 23.0348 6.12784C22.37 6.95739 21.8871 8.26705 21.5859 10.0568C21.3814 11.2841 21.3359 12.2898 21.4496 13.0739C21.5632 13.858 21.8018 14.4375 22.1655 14.8125C22.5291 15.1875 22.9837 15.375 23.5291 15.375ZM32.8445 18.75L35.7422 1.29545H48.0149L47.3672 5.11364H39.8331L39.3558 8.11364H46.1399L45.4922 11.9318H38.7081L37.5831 18.75H32.8445ZM46.9283 18.75L49.1101 5.65909H53.8146L51.6328 18.75H46.9283ZM51.6669 4.29545C51.0305 4.29545 50.5163 4.08523 50.1243 3.66477C49.7322 3.23864 49.5874 2.73295 49.6896 2.14773C49.7919 1.55114 50.1044 1.04545 50.6271 0.630681C51.1499 0.210227 51.7294 0 52.3658 0C53.0078 0 53.5192 0.210227 53.8999 0.630681C54.2805 1.04545 54.4226 1.55114 54.326 2.14773C54.2351 2.73295 53.9283 3.23864 53.4055 3.66477C52.8885 4.08523 52.3089 4.29545 51.6669 4.29545ZM64.0696 5.65909L63.4901 9.06818H54.7287L55.3082 5.65909H64.0696ZM54.7798 18.75L57.0298 5.28409C57.206 4.20455 57.544 3.30966 58.044 2.59943C58.5497 1.8892 59.1832 1.35795 59.9446 1.00568C60.7116 0.653408 61.5696 0.477272 62.5185 0.477272C63.1207 0.477272 63.6974 0.522727 64.2486 0.613636C64.7997 0.704545 65.2003 0.784091 65.4503 0.852272L64.223 4.22727C64.0582 4.17614 63.8679 4.13636 63.652 4.10795C63.4361 4.07386 63.2401 4.05682 63.0639 4.05682C62.6264 4.05682 62.3139 4.15057 62.1264 4.33807C61.9446 4.52557 61.8253 4.77273 61.7685 5.07954L59.4844 18.75H54.7798ZM73.6747 5.65909L73.0952 9.06818H64.4702L65.0497 5.65909H73.6747ZM67.2315 2.52273H71.9361L69.9418 14.5398C69.9133 14.7216 69.919 14.875 69.9588 15C69.9986 15.1193 70.0781 15.2102 70.1974 15.2727C70.3224 15.3295 70.4872 15.358 70.6918 15.358C70.8281 15.358 70.9957 15.3409 71.1946 15.3068C71.3935 15.267 71.544 15.2386 71.6463 15.2216L71.7827 18.5284C71.544 18.5966 71.223 18.6733 70.8196 18.7585C70.4219 18.8494 69.9588 18.9091 69.4304 18.9375C68.3281 18.9886 67.4304 18.8722 66.7372 18.5881C66.0497 18.304 65.5724 17.8608 65.3054 17.2585C65.044 16.6506 64.9986 15.892 65.169 14.983L67.2315 2.52273ZM75.4751 23.6591C74.9297 23.6591 74.4212 23.6165 73.9496 23.5312C73.478 23.4517 73.066 23.3409 72.7138 23.1989L74.299 19.858C74.6626 19.9943 74.9979 20.0824 75.3047 20.1222C75.6172 20.1619 75.8928 20.1392 76.1314 20.054C76.37 19.9688 76.566 19.8068 76.7195 19.5682L76.8729 19.3295L74.5376 5.65909H79.2763L79.8729 14.7273H80.0092L83.674 5.65909H88.7876L81.6626 19.8409C81.299 20.5625 80.8445 21.2102 80.299 21.7841C79.7592 22.3636 79.0945 22.821 78.3047 23.1562C77.5149 23.4915 76.5717 23.6591 75.4751 23.6591ZM89.7827 19.0227C89.1179 19.0227 88.5753 18.7926 88.1548 18.3324C87.7401 17.8665 87.5668 17.3011 87.6349 16.6364C87.7031 15.9886 87.9957 15.4347 88.5128 14.9744C89.0355 14.5142 89.6293 14.2841 90.294 14.2841C90.9247 14.2841 91.4503 14.5142 91.8707 14.9744C92.2969 15.4347 92.4758 15.9886 92.4077 16.6364C92.3622 17.0795 92.206 17.483 91.9389 17.8466C91.6776 18.2045 91.3537 18.4915 90.9673 18.7074C90.5866 18.9176 90.1918 19.0227 89.7827 19.0227Z" fill="white"/>
<path d="M96.9418 18.75L95.8508 5.65909H100.555L100.726 13.6364H100.828L103.828 5.65909H108.396L108.805 13.5682H108.908L111.669 5.65909H116.374L110.919 18.75H105.839L105.158 11.7273H105.021L102.021 18.75H96.9418ZM115.624 18.75L117.805 5.65909H122.51L120.328 18.75H115.624ZM120.362 4.29545C119.726 4.29545 119.212 4.08523 118.82 3.66477C118.428 3.23864 118.283 2.73295 118.385 2.14773C118.487 1.55114 118.8 1.04545 119.322 0.630681C119.845 0.210227 120.425 0 121.061 0C121.703 0 122.214 0.210227 122.595 0.630681C122.976 1.04545 123.118 1.55114 123.021 2.14773C122.93 2.73295 122.624 3.23864 122.101 3.66477C121.584 4.08523 121.004 4.29545 120.362 4.29545ZM128.691 11.3864L127.464 18.75H122.759L124.941 5.65909H129.407L128.998 8.14773H129.134C129.549 7.3125 130.154 6.66193 130.95 6.19602C131.751 5.72443 132.634 5.48864 133.6 5.48864C134.526 5.48864 135.296 5.69886 135.91 6.11932C136.523 6.53977 136.958 7.11932 137.214 7.85795C137.469 8.59659 137.515 9.44318 137.35 10.3977L135.952 18.75H131.248L132.475 11.3864C132.583 10.7386 132.504 10.2301 132.237 9.8608C131.975 9.49148 131.543 9.30682 130.941 9.30682C130.56 9.30682 130.211 9.39205 129.893 9.5625C129.58 9.72727 129.319 9.96591 129.109 10.2784C128.904 10.5852 128.765 10.9545 128.691 11.3864Z" fill="#FB0202"/>
</svg>
