
 <svg xmlns="http://www.w3.org/2000/svg" width="0" height="0">
     <defs> 
       <symbol id="fill-star" viewBox="0 0 18 18">
         <path d="M9.87046 1.56244C9.70987 1.21873 9.37051 1 8.99782 1C8.62514 1 8.28881 1.21873 8.12519 1.56244L6.17691 5.69635L1.82586 6.35878C1.46227 6.41502 1.15927 6.67749 1.04716 7.03682C0.935051 7.39616 1.02595 7.79299 1.28653 8.05858L4.44377 11.2801L3.69839 15.8327C3.63779 16.2077 3.78929 16.5889 4.08926 16.8107C4.38923 17.0326 4.78615 17.0607 5.11339 16.8826L9.00085 14.7422L12.8883 16.8826C13.2156 17.0607 13.6125 17.0357 13.9124 16.8107C14.2124 16.5858 14.3639 16.2077 14.3033 15.8327L13.5549 11.2801L16.7121 8.05858C16.9727 7.79299 17.0667 7.39616 16.9515 7.03682C16.8364 6.67749 16.5364 6.41502 16.1728 6.35878L11.8187 5.69635L9.87046 1.56244Z" />
       </symbol>
       <symbol id="half-star" viewBox="0 0 18 18">
       <path  d="M8.99612 12.7619L8.99915 12.7588L9.79906 13.1994L12.3806 14.6212L11.8807 11.5714L11.7352 10.6745L12.3624 10.0339L14.4864 7.86842L11.5746 7.42469L10.6868 7.29032L10.296 6.45911L8.99915 3.71549L8.99612 3.72487V12.7619ZM14.3016 15.8337C14.3622 16.2086 14.2107 16.5899 13.9107 16.8117C13.6108 17.0336 13.2138 17.0617 12.8866 16.8836L8.99915 14.7431L5.11168 16.8836C4.78445 17.0617 4.38752 17.0336 4.08755 16.8117C3.78758 16.5899 3.63608 16.2086 3.69668 15.8337L4.44509 11.2807L1.28785 8.05903C1.02727 7.79342 0.933343 7.39656 1.04848 7.03721C1.16362 6.67785 1.46359 6.41536 1.82719 6.35911L6.17824 5.69665L8.12954 1.56247C8.29316 1.21874 8.62949 1 9.00218 1C9.37486 1 9.71119 1.21874 9.87481 1.56247L11.8231 5.69665L16.1741 6.35911C16.5377 6.41536 16.8407 6.67785 16.9528 7.03721C17.0649 7.39656 16.9741 7.79342 16.7135 8.05903L13.5562 11.2807L14.3016 15.8337Z" />
       </symbol>
     </defs>
 </svg>